<svg xmlns="http://www.w3.org/2000/svg" xmlns:xlink="http://www.w3.org/1999/xlink" preserveAspectRatio="xMidYMid" width="1920" height="744.03" viewBox="0 0 1920 744.03">
  <defs>
    <style>
      .cls-1 {
        fill: #ededed;
        fill-rule: evenodd;
      }
    </style>
  </defs>
  <path d="M1914.753,744.015 L1912.545,744.015 L1921.000,736.015 L1921.000,738.104 L1914.753,744.015 ZM1876.987,744.015 L1921.000,702.374 L1921.000,704.462 L1879.193,744.015 L1876.987,744.015 ZM1841.427,744.015 L1921.000,668.732 L1921.000,670.821 L1843.635,744.015 L1841.427,744.015 ZM1891.889,662.611 L1921.000,635.089 L1921.000,637.179 L1885.809,670.476 L1891.889,662.611 ZM1908.105,600.223 L1921.000,588.020 L1921.000,590.110 L1909.036,601.427 L1908.105,600.223 ZM1893.082,580.794 L1921.000,554.377 L1921.000,556.468 L1894.014,582.000 L1893.082,580.794 ZM1878.056,561.366 L1921.000,520.736 L1921.000,522.826 L1878.988,562.572 L1878.056,561.366 ZM1862.702,546.012 L1826.130,511.413 L1789.554,546.017 L1790.305,545.046 L1788.633,543.464 L1790.448,544.862 L1795.640,538.150 L1826.130,509.325 L1856.762,538.307 L1861.022,543.841 L1921.000,487.095 L1921.000,489.184 L1861.954,545.046 L1862.702,546.012 ZM1848.008,522.511 L1921.000,453.453 L1921.000,455.542 L1848.940,523.716 L1848.008,522.511 ZM1832.986,503.084 L1921.000,419.812 L1921.000,421.900 L1833.917,504.290 L1832.986,503.084 ZM1891.889,413.690 L1921.000,386.169 L1921.000,388.259 L1885.814,421.549 L1891.889,413.690 ZM1908.105,351.301 L1921.000,339.101 L1921.000,341.189 L1909.036,352.507 L1908.105,351.301 ZM1893.082,331.874 L1921.000,305.459 L1921.000,307.548 L1894.014,333.079 L1893.082,331.874 ZM1878.056,312.446 L1921.000,271.817 L1921.000,273.906 L1878.988,313.651 L1878.056,312.446 ZM1862.702,297.093 L1826.130,262.494 L1789.554,297.097 L1790.305,296.126 L1788.631,294.541 L1790.448,295.942 L1795.640,289.230 L1826.130,260.405 L1856.762,289.387 L1861.022,294.922 L1921.000,238.175 L1921.000,240.264 L1861.954,296.126 L1862.702,297.093 ZM1848.008,273.591 L1921.000,204.533 L1921.000,206.622 L1848.940,274.796 L1848.008,273.591 ZM1832.986,254.164 L1921.000,170.892 L1921.000,172.980 L1833.917,255.369 L1832.986,254.164 ZM1891.889,164.771 L1921.000,137.249 L1921.000,139.338 L1885.809,172.635 L1891.889,164.771 ZM1908.105,102.382 L1921.000,90.180 L1921.000,92.269 L1909.036,103.587 L1908.105,102.382 ZM1893.082,82.954 L1921.000,56.537 L1921.000,58.627 L1894.014,84.160 L1893.082,82.954 ZM1878.056,63.526 L1921.000,22.896 L1921.000,24.986 L1878.988,64.732 L1878.056,63.526 ZM1862.702,48.173 L1826.130,13.573 L1789.554,48.177 L1790.305,47.206 L1788.631,45.622 L1790.448,47.022 L1795.640,40.310 L1826.130,11.485 L1856.762,40.467 L1861.022,46.000 L1909.637,0.006 L1911.842,0.006 L1861.954,47.206 L1862.702,48.173 ZM1848.008,24.671 L1874.077,0.006 L1876.285,0.006 L1848.940,25.876 L1848.008,24.671 ZM1832.986,5.243 L1838.519,0.006 L1840.727,0.006 L1833.917,6.450 L1832.986,5.243 ZM1811.535,0.006 L1813.741,0.006 L1819.274,5.243 L1818.345,6.448 L1811.535,0.006 ZM1775.975,0.006 L1778.183,0.006 L1804.251,24.671 L1803.320,25.876 L1775.975,0.006 ZM1788.294,45.304 L1740.417,0.006 L1742.626,0.006 L1789.226,44.098 L1788.294,45.304 ZM1773.271,64.732 L1729.894,23.692 L1686.517,64.732 L1685.583,63.525 L1729.811,21.684 L1729.884,21.769 L1729.970,21.675 L1774.203,63.526 L1773.271,64.732 ZM1670.229,48.173 L1633.656,13.573 L1597.091,48.168 L1597.834,47.206 L1596.170,45.633 L1597.974,47.022 L1603.166,40.310 L1633.656,11.485 L1664.291,40.467 L1668.548,46.000 L1717.163,0.006 L1719.368,0.006 L1669.480,47.206 L1670.229,48.173 ZM1655.534,24.671 L1681.605,0.006 L1683.811,0.006 L1656.466,25.876 L1655.534,24.671 ZM1640.512,5.243 L1646.045,0.006 L1648.253,0.006 L1641.443,6.450 L1640.512,5.243 ZM1619.061,0.006 L1621.267,0.006 L1626.803,5.243 L1625.871,6.450 L1619.061,0.006 ZM1583.504,0.006 L1585.709,0.006 L1611.778,24.671 L1610.846,25.876 L1583.504,0.006 ZM1595.823,45.303 L1547.946,0.006 L1550.151,0.006 L1596.752,44.098 L1595.823,45.303 ZM1580.798,64.732 L1537.420,23.692 L1494.043,64.732 L1493.111,63.526 L1537.337,21.684 L1537.410,21.767 L1537.493,21.673 L1581.729,63.526 L1580.798,64.732 ZM1477.755,48.173 L1441.182,13.573 L1404.618,48.168 L1405.361,47.206 L1355.472,0.006 L1357.678,0.006 L1406.292,46.000 L1410.692,40.310 L1441.182,11.485 L1471.817,40.467 L1476.074,46.000 L1524.689,0.006 L1526.897,0.006 L1477.006,47.206 L1477.755,48.173 ZM1463.063,24.671 L1489.132,0.006 L1491.337,0.006 L1463.992,25.875 L1463.063,24.671 ZM1448.038,5.243 L1453.574,0.006 L1455.779,0.006 L1448.969,6.450 L1448.038,5.243 ZM1426.587,0.006 L1428.793,0.006 L1434.329,5.243 L1433.397,6.450 L1426.587,0.006 ZM1391.030,0.006 L1393.235,0.006 L1419.303,24.671 L1418.372,25.876 L1391.030,0.006 ZM1388.324,64.732 L1344.946,23.692 L1301.569,64.732 L1300.638,63.526 L1344.863,21.684 L1344.936,21.767 L1345.019,21.673 L1389.255,63.526 L1388.324,64.732 ZM1285.273,48.164 L1248.711,13.573 L1212.135,48.177 L1212.887,47.206 L1162.998,0.006 L1165.204,0.006 L1213.819,46.000 L1218.218,40.310 L1248.711,11.485 L1279.343,40.467 L1283.601,46.000 L1332.215,0.006 L1334.423,0.006 L1284.532,47.206 L1285.273,48.164 ZM1270.589,24.671 L1296.658,0.006 L1298.863,0.006 L1271.521,25.876 L1270.589,24.671 ZM1255.564,5.243 L1261.100,0.006 L1263.305,0.006 L1256.495,6.450 L1255.564,5.243 ZM1234.113,0.006 L1236.319,0.006 L1241.855,5.243 L1240.924,6.450 L1234.113,0.006 ZM1198.556,0.006 L1200.761,0.006 L1226.830,24.671 L1225.898,25.876 L1198.556,0.006 ZM1195.850,64.732 L1152.472,23.692 L1109.095,64.732 L1108.164,63.526 L1152.472,21.603 L1196.782,63.526 L1195.850,64.732 ZM1092.810,48.173 L1056.237,13.573 L1019.662,48.177 L1020.413,47.206 L1018.738,45.621 L1020.555,47.021 L1025.745,40.309 L1056.237,11.485 L1086.869,40.467 L1091.127,46.000 L1139.741,0.006 L1141.949,0.006 L1092.061,47.206 L1092.810,48.173 ZM1078.115,24.671 L1104.184,0.006 L1106.392,0.006 L1079.047,25.876 L1078.115,24.671 ZM1063.090,5.242 L1068.626,0.006 L1070.834,0.006 L1064.024,6.450 L1063.090,5.242 ZM1041.640,0.006 L1043.848,0.006 L1049.381,5.243 L1048.450,6.450 L1041.640,0.006 ZM1006.082,0.006 L1008.287,0.006 L1034.356,24.671 L1033.424,25.876 L1006.082,0.006 ZM1018.401,45.304 L970.525,0.006 L972.730,0.006 L1019.333,44.098 L1018.401,45.304 ZM1003.378,64.731 L959.999,23.692 L916.622,64.732 L915.690,63.526 L959.999,21.603 L1004.308,63.526 L1003.378,64.731 ZM900.336,48.173 L863.763,13.573 L827.188,48.177 L827.939,47.206 L826.264,45.621 L828.082,47.021 L833.271,40.309 L863.763,11.485 L894.396,40.467 L898.656,46.000 L947.270,0.006 L949.475,0.006 L899.587,47.206 L900.336,48.173 ZM885.642,24.671 L911.710,0.006 L913.918,0.006 L886.573,25.876 L885.642,24.671 ZM870.619,5.243 L876.152,0.006 L878.360,0.006 L871.551,6.450 L870.619,5.243 ZM849.166,0.006 L851.374,0.006 L856.907,5.243 L855.976,6.450 L849.166,0.006 ZM813.608,0.006 L815.814,0.006 L841.882,24.671 L840.953,25.875 L813.608,0.006 ZM825.928,45.304 L778.051,0.006 L780.256,0.006 L826.859,44.098 L825.928,45.304 ZM810.905,64.732 L767.528,23.692 L724.148,64.732 L723.216,63.526 L767.525,21.603 L811.836,63.526 L810.905,64.732 ZM707.862,48.173 L671.289,13.573 L634.714,48.177 L635.465,47.206 L633.790,45.621 L635.608,47.021 L640.797,40.309 L671.289,11.485 L701.922,40.467 L706.182,46.000 L754.796,0.006 L757.002,0.006 L707.113,47.206 L707.862,48.173 ZM693.168,24.671 L719.236,0.006 L721.444,0.006 L694.099,25.876 L693.168,24.671 ZM678.145,5.243 L683.679,0.006 L685.887,0.006 L679.077,6.450 L678.145,5.243 ZM656.692,0.006 L658.900,0.006 L664.434,5.243 L663.502,6.450 L656.692,0.006 ZM621.134,0.006 L623.340,0.006 L649.411,24.671 L648.479,25.876 L621.134,0.006 ZM633.454,45.304 L585.577,0.006 L587.785,0.006 L634.385,44.098 L633.454,45.304 ZM618.431,64.732 L575.054,23.692 L531.674,64.732 L530.742,63.526 L575.054,21.603 L619.362,63.526 L618.431,64.732 ZM515.388,48.173 L478.815,13.573 L442.240,48.177 L442.991,47.206 L441.316,45.622 L443.134,47.022 L448.325,40.310 L478.815,11.485 L509.448,40.467 L513.708,46.000 L562.322,0.006 L564.528,0.006 L514.639,47.206 L515.388,48.173 ZM500.694,24.671 L526.762,0.006 L528.970,0.006 L501.626,25.876 L500.694,24.671 ZM485.671,5.243 L491.205,0.006 L493.413,0.006 L486.603,6.450 L485.671,5.243 ZM464.221,0.006 L466.426,0.006 L471.960,5.243 L471.031,6.448 L464.221,0.006 ZM428.661,0.006 L430.869,0.006 L456.937,24.671 L456.005,25.876 L428.661,0.006 ZM440.980,45.304 L393.104,0.006 L395.310,0.006 L441.911,44.098 L440.980,45.304 ZM425.957,64.732 L382.580,23.692 L339.201,64.732 L338.269,63.526 L382.553,21.629 L382.626,21.702 L382.652,21.673 L426.889,63.526 L425.957,64.732 ZM322.910,48.168 L286.343,13.573 L249.770,48.173 L250.519,47.206 L248.847,45.625 L250.662,47.022 L255.853,40.310 L286.343,11.485 L316.974,40.467 L321.234,46.000 L369.849,0.006 L372.055,0.006 L322.166,47.206 L322.910,48.168 ZM308.221,24.671 L334.290,0.006 L336.496,0.006 L309.153,25.876 L308.221,24.671 ZM293.196,5.243 L298.732,0.006 L300.939,0.006 L294.129,6.450 L293.196,5.243 ZM271.747,0.006 L273.952,0.006 L279.487,5.243 L278.555,6.450 L271.747,0.006 ZM236.188,0.006 L238.395,0.006 L264.463,24.671 L263.531,25.876 L236.188,0.006 ZM248.507,45.304 L200.631,0.006 L202.837,0.006 L249.439,44.098 L248.507,45.304 ZM233.483,64.732 L190.106,23.692 L146.727,64.732 L145.796,63.526 L190.021,21.684 L190.037,21.702 L190.122,21.618 L234.415,63.526 L233.483,64.732 ZM130.436,48.168 L93.869,13.573 L57.299,48.172 L58.046,47.206 L56.377,45.628 L58.189,47.021 L63.379,40.309 L93.869,11.485 L124.500,40.467 L128.760,46.000 L177.375,0.006 L179.581,0.006 L129.692,47.206 L130.436,48.168 ZM115.747,24.671 L141.817,0.006 L144.023,0.006 L116.679,25.876 L115.747,24.671 ZM100.722,5.243 L106.258,0.006 L108.465,0.006 L101.656,6.450 L100.722,5.243 ZM79.273,0.006 L81.480,0.006 L87.015,5.243 L86.083,6.448 L79.273,0.006 ZM43.714,0.006 L45.921,0.006 L71.989,24.671 L71.058,25.876 L43.714,0.006 ZM56.035,45.304 L8.158,0.006 L10.363,0.006 L56.966,44.098 L56.035,45.304 ZM41.009,64.732 L-1.000,24.986 L-1.000,22.896 L41.941,63.526 L41.009,64.732 ZM25.987,84.160 L-1.000,58.627 L-1.000,56.537 L26.919,82.954 L25.987,84.160 ZM10.962,103.587 L-1.000,92.269 L-1.000,90.180 L11.895,102.381 L10.962,103.587 ZM29.750,166.889 L32.513,170.461 L93.869,112.411 L153.216,168.559 L152.474,169.518 L154.657,171.197 L159.628,164.771 L190.106,135.957 L220.728,164.928 L222.222,166.888 L224.986,170.461 L286.343,112.411 L347.698,170.461 L349.372,168.296 L352.101,164.771 L382.579,135.957 L413.200,164.928 L417.459,170.462 L478.815,112.411 L538.160,168.559 L537.388,169.558 L539.571,171.239 L544.575,164.771 L575.051,135.957 L605.675,164.928 L607.167,166.888 L609.933,170.461 L671.289,112.411 L732.646,170.461 L736.984,164.853 L767.525,135.957 L798.149,164.928 L799.644,166.888 L802.407,170.461 L863.763,112.411 L925.120,170.462 L927.853,166.925 L929.520,164.771 L959.999,135.957 L990.623,164.928 L992.118,166.888 L994.880,170.461 L1056.237,112.411 L1117.593,170.462 L1120.327,166.925 L1121.993,164.771 L1152.472,135.957 L1183.097,164.928 L1184.589,166.888 L1187.354,170.461 L1248.711,112.411 L1310.065,170.461 L1314.467,164.771 L1344.922,135.981 L1344.936,135.995 L1344.960,135.971 L1375.568,164.928 L1379.825,170.462 L1441.182,112.411 L1502.539,170.461 L1503.486,169.237 L1506.941,164.771 L1537.396,135.981 L1537.410,135.995 L1537.434,135.971 L1568.042,164.928 L1572.299,170.462 L1633.656,112.411 L1693.001,168.559 L1692.072,169.765 L1633.656,114.499 L1573.231,171.667 L1573.979,172.634 L1537.420,138.045 L1500.848,172.646 L1501.607,171.666 L1441.182,114.499 L1380.757,171.668 L1381.506,172.633 L1344.946,138.045 L1308.385,172.636 L1309.136,171.666 L1248.711,114.499 L1188.283,171.668 L1189.032,172.633 L1152.472,138.045 L1115.911,172.636 L1116.662,171.666 L1056.237,114.499 L995.812,171.667 L996.566,172.643 L959.999,138.045 L923.431,172.643 L924.188,171.666 L863.763,114.499 L803.338,171.667 L804.092,172.640 L767.528,138.045 L730.955,172.646 L731.714,171.666 L671.289,114.499 L610.864,171.667 L611.615,172.639 L575.054,138.045 L538.484,172.645 L539.240,171.666 L478.815,114.499 L418.391,171.667 L419.144,172.640 L382.580,138.045 L346.014,172.640 L346.768,171.666 L286.343,114.499 L225.917,171.667 L226.666,172.636 L190.106,138.045 L153.540,172.640 L154.294,171.666 L93.869,114.499 L33.445,171.667 L34.197,172.640 L-1.000,139.338 L-1.000,137.250 L28.254,164.928 L29.750,166.889 ZM86.083,255.368 L-1.000,172.980 L-1.000,170.892 L87.015,254.164 L86.083,255.368 ZM71.058,274.796 L-1.000,206.622 L-1.000,204.533 L71.989,273.591 L71.058,274.796 ZM56.035,294.224 L-1.000,240.264 L-1.000,238.175 L56.965,293.020 L56.035,294.224 ZM41.009,313.652 L-1.000,273.906 L-1.000,271.817 L41.941,312.446 L41.009,313.652 ZM25.987,333.079 L-1.000,307.548 L-1.000,305.459 L26.918,331.874 L25.987,333.079 ZM10.962,352.507 L-1.000,341.189 L-1.000,339.101 L11.895,351.301 L10.962,352.507 ZM29.750,415.809 L32.513,419.381 L93.869,361.331 L153.216,417.479 L152.284,418.684 L93.869,363.419 L33.444,420.587 L34.194,421.557 L-1.000,388.259 L-1.000,386.171 L28.254,413.848 L29.750,415.809 ZM86.083,504.288 L-1.000,421.900 L-1.000,419.812 L87.015,503.084 L86.083,504.288 ZM71.058,523.716 L-1.000,455.542 L-1.000,453.453 L71.989,522.511 L71.058,523.716 ZM56.035,543.144 L-1.000,489.184 L-1.000,487.095 L56.966,541.938 L56.035,543.144 ZM41.009,562.572 L-1.000,522.826 L-1.000,520.736 L41.941,561.366 L41.009,562.572 ZM25.987,582.000 L-1.000,556.468 L-1.000,554.377 L26.919,580.794 L25.987,582.000 ZM10.962,601.427 L-1.000,590.110 L-1.000,588.020 L11.895,600.221 L10.962,601.427 ZM29.750,664.730 L32.513,668.301 L93.869,610.251 L153.216,666.399 L152.474,667.358 L154.657,669.037 L159.628,662.611 L190.106,633.797 L220.728,662.768 L222.222,664.728 L224.986,668.301 L286.343,610.251 L347.698,668.301 L349.372,666.137 L352.101,662.611 L382.579,633.797 L413.200,662.768 L417.459,668.302 L478.815,610.251 L538.160,666.399 L537.388,667.399 L539.571,669.078 L544.575,662.611 L575.051,633.797 L605.675,662.768 L607.167,664.728 L609.933,668.301 L671.289,610.251 L732.646,668.301 L736.984,662.693 L767.525,633.797 L798.149,662.768 L799.644,664.728 L802.407,668.301 L863.763,610.251 L925.120,668.302 L927.853,664.765 L929.520,662.611 L959.999,633.797 L990.623,662.768 L992.118,664.728 L994.880,668.301 L1056.237,610.251 L1117.593,668.302 L1120.327,664.765 L1121.993,662.611 L1152.472,633.797 L1183.097,662.768 L1184.589,664.728 L1187.354,668.301 L1248.711,610.251 L1310.065,668.301 L1314.467,662.611 L1344.922,633.821 L1344.936,633.836 L1344.960,633.811 L1375.568,662.768 L1379.825,668.302 L1441.182,610.251 L1502.539,668.301 L1503.486,667.078 L1506.941,662.611 L1537.396,633.821 L1537.410,633.836 L1537.434,633.811 L1568.042,662.768 L1572.299,668.302 L1633.656,610.251 L1693.001,666.399 L1692.072,667.605 L1633.656,612.339 L1573.231,669.507 L1573.979,670.474 L1537.420,635.886 L1500.848,670.486 L1501.607,669.506 L1441.182,612.339 L1380.757,669.509 L1381.506,670.473 L1344.946,635.886 L1308.385,670.477 L1309.136,669.506 L1248.711,612.339 L1188.283,669.509 L1189.032,670.473 L1152.472,635.886 L1115.911,670.477 L1116.662,669.506 L1056.237,612.339 L995.812,669.507 L996.566,670.484 L959.999,635.886 L923.431,670.484 L924.188,669.506 L863.763,612.339 L803.338,669.507 L804.092,670.481 L767.528,635.886 L730.955,670.486 L731.714,669.506 L671.289,612.339 L610.864,669.507 L611.615,670.480 L575.054,635.886 L538.484,670.485 L539.240,669.506 L478.815,612.339 L418.391,669.507 L419.144,670.481 L382.580,635.886 L346.014,670.481 L346.768,669.506 L286.343,612.339 L225.917,669.507 L226.666,670.477 L190.106,635.886 L153.540,670.481 L154.294,669.506 L93.869,612.339 L33.445,669.507 L34.197,670.481 L-1.000,637.179 L-1.000,635.091 L28.254,662.768 L29.750,664.730 ZM76.364,744.015 L-1.000,670.821 L-1.000,668.732 L78.570,744.015 L76.364,744.015 ZM40.805,744.015 L-1.000,704.462 L-1.000,702.374 L43.013,744.015 L40.805,744.015 ZM5.247,744.015 L-1.000,738.104 L-1.000,736.015 L7.455,744.015 L5.247,744.015 ZM108.143,724.682 L107.212,725.887 L93.869,713.264 L80.526,725.888 L79.595,724.682 L93.869,711.176 L108.143,724.682 ZM123.167,705.253 L122.236,706.460 L93.869,679.622 L65.502,706.460 L64.571,705.253 L93.869,677.534 L123.167,705.253 ZM49.548,685.826 L93.869,643.893 L138.191,685.826 L137.260,687.032 L93.869,645.981 L50.480,687.032 L49.548,685.826 ZM271.044,744.015 L268.837,744.015 L190.106,669.528 L111.374,744.015 L109.168,744.015 L190.106,667.438 L271.044,744.015 ZM235.485,744.015 L233.279,744.015 L190.106,703.169 L146.933,744.015 L144.725,744.015 L190.106,701.080 L235.485,744.015 ZM199.928,744.015 L197.721,744.015 L190.106,736.811 L182.491,744.015 L180.284,744.015 L190.106,734.722 L199.928,744.015 ZM300.616,724.682 L299.684,725.888 L286.343,713.264 L273.000,725.888 L272.069,724.682 L286.343,711.176 L300.616,724.682 ZM315.641,705.253 L314.709,706.458 L286.343,679.622 L257.976,706.460 L257.044,705.253 L286.343,677.534 L315.641,705.253 ZM242.020,685.826 L286.343,643.893 L330.665,685.826 L329.732,687.032 L286.343,645.981 L242.952,687.032 L242.020,685.826 ZM463.518,744.015 L461.310,744.015 L382.580,669.528 L303.848,744.015 L301.640,744.015 L382.580,667.438 L463.518,744.015 ZM427.958,744.015 L425.752,744.015 L382.580,703.169 L339.406,744.015 L337.199,744.015 L382.579,701.080 L427.958,744.015 ZM392.402,744.015 L390.195,744.015 L382.580,736.811 L374.965,744.015 L372.758,744.015 L382.580,734.722 L392.402,744.015 ZM493.090,724.682 L492.158,725.888 L478.815,713.264 L465.473,725.888 L464.541,724.682 L478.815,711.176 L493.090,724.682 ZM508.112,705.253 L507.183,706.458 L478.815,679.622 L450.450,706.460 L449.518,705.253 L478.815,677.534 L508.112,705.253 ZM434.493,685.826 L478.815,643.893 L523.138,685.826 L522.206,687.032 L478.815,645.981 L435.425,687.032 L434.493,685.826 ZM655.992,744.015 L653.784,744.015 L575.054,669.528 L496.321,744.015 L494.113,744.015 L575.054,667.438 L655.992,744.015 ZM620.432,744.015 L618.226,744.015 L575.054,703.169 L531.878,744.015 L529.673,744.015 L575.054,701.080 L620.432,744.015 ZM584.874,744.015 L582.669,744.015 L575.054,736.811 L567.439,744.015 L565.231,744.015 L575.054,734.722 L584.874,744.015 ZM685.563,724.682 L684.632,725.888 L671.289,713.264 L657.947,725.888 L657.015,724.682 L671.289,711.176 L685.563,724.682 ZM700.586,705.253 L699.655,706.460 L671.289,679.622 L642.924,706.460 L641.992,705.253 L671.289,677.534 L700.586,705.253 ZM626.967,685.826 L671.289,643.893 L715.612,685.826 L714.680,687.032 L671.289,645.981 L627.899,687.032 L626.967,685.826 ZM848.466,744.015 L846.258,744.015 L767.528,669.528 L688.795,744.015 L686.587,744.015 L767.525,667.438 L848.466,744.015 ZM812.905,744.015 L810.700,744.015 L767.528,703.169 L724.352,744.015 L722.147,744.015 L767.525,701.080 L812.905,744.015 ZM777.348,744.015 L775.140,744.015 L767.528,736.811 L759.913,744.015 L757.705,744.015 L767.525,734.722 L777.348,744.015 ZM878.037,724.682 L877.106,725.888 L863.763,713.264 L850.421,725.888 L849.489,724.682 L863.763,711.176 L878.037,724.682 ZM893.060,705.253 L892.128,706.460 L863.763,679.622 L835.398,706.460 L834.466,705.253 L863.763,677.534 L893.060,705.253 ZM819.441,685.826 L863.763,643.893 L908.086,685.826 L907.154,687.032 L863.763,645.981 L820.372,687.032 L819.441,685.826 ZM1040.937,744.015 L1038.731,744.015 L959.999,669.528 L881.269,744.015 L879.061,744.015 L959.999,667.438 L1040.937,744.015 ZM1005.379,744.015 L1003.171,744.015 L959.999,703.169 L916.826,744.015 L914.618,744.015 L959.999,701.080 L1005.379,744.015 ZM969.822,744.015 L967.614,744.015 L960.001,736.811 L952.386,744.015 L950.178,744.015 L960.001,734.722 L969.822,744.015 ZM1070.511,724.682 L1069.579,725.888 L1056.237,713.264 L1042.894,725.888 L1041.963,724.682 L1056.237,711.176 L1070.511,724.682 ZM1085.534,705.253 L1084.602,706.460 L1056.237,679.622 L1027.872,706.460 L1026.937,705.252 L1056.237,677.534 L1085.534,705.253 ZM1011.915,685.826 L1056.237,643.893 L1100.559,685.827 L1099.628,687.032 L1056.237,645.981 L1012.846,687.032 L1011.915,685.826 ZM1233.411,744.015 L1231.205,744.015 L1152.472,669.528 L1073.742,744.015 L1071.534,744.015 L1152.472,667.438 L1233.411,744.015 ZM1197.853,744.015 L1195.645,744.015 L1152.472,703.169 L1109.300,744.015 L1107.092,744.015 L1152.472,701.080 L1197.853,744.015 ZM1162.296,744.015 L1160.088,744.015 L1152.472,736.811 L1144.857,744.015 L1142.652,744.015 L1152.472,734.722 L1162.296,744.015 ZM1262.982,724.682 L1262.053,725.887 L1248.711,713.264 L1235.368,725.888 L1234.437,724.682 L1248.711,711.176 L1262.982,724.682 ZM1278.008,705.253 L1277.076,706.460 L1248.711,679.622 L1220.343,706.460 L1219.411,705.253 L1248.711,677.534 L1278.008,705.253 ZM1204.389,685.826 L1248.711,643.893 L1293.031,685.826 L1292.099,687.032 L1248.711,645.981 L1205.320,687.032 L1204.389,685.826 ZM1344.936,667.478 L1344.960,667.453 L1425.885,744.015 L1423.679,744.015 L1344.946,669.528 L1266.216,744.015 L1264.008,744.015 L1344.922,667.463 L1344.936,667.478 ZM1344.936,701.119 L1344.960,701.095 L1390.327,744.015 L1388.119,744.015 L1344.946,703.169 L1301.774,744.015 L1299.566,744.015 L1344.922,701.105 L1344.936,701.119 ZM1344.936,734.760 L1344.960,734.736 L1354.769,744.015 L1352.562,744.015 L1344.946,736.811 L1337.331,744.015 L1335.126,744.015 L1344.922,734.746 L1344.936,734.760 ZM1455.456,724.682 L1454.525,725.888 L1441.182,713.264 L1427.839,725.887 L1426.910,724.682 L1441.182,711.176 L1455.456,724.682 ZM1470.482,705.253 L1469.550,706.460 L1441.182,679.622 L1412.817,706.460 L1411.885,705.253 L1441.182,677.534 L1470.482,705.253 ZM1396.862,685.826 L1441.182,643.893 L1485.504,685.826 L1484.573,687.032 L1441.182,645.981 L1397.794,687.032 L1396.862,685.826 ZM1537.410,667.478 L1537.434,667.453 L1618.359,744.015 L1616.150,744.015 L1537.420,669.528 L1458.687,744.015 L1456.482,744.015 L1537.396,667.463 L1537.410,667.478 ZM1537.410,701.119 L1537.434,701.095 L1582.801,744.015 L1580.593,744.015 L1537.420,703.169 L1494.248,744.015 L1492.040,744.015 L1537.396,701.105 L1537.410,701.119 ZM1537.410,734.758 L1537.434,734.736 L1547.244,744.015 L1545.035,744.015 L1537.420,736.811 L1529.805,744.015 L1527.597,744.015 L1537.396,734.746 L1537.410,734.758 ZM1647.930,724.682 L1646.998,725.888 L1633.656,713.264 L1620.314,725.888 L1619.382,724.682 L1633.656,711.176 L1647.930,724.682 ZM1662.956,705.253 L1662.024,706.460 L1633.656,679.622 L1605.291,706.460 L1604.359,705.253 L1633.656,677.534 L1662.956,705.253 ZM1589.336,685.826 L1633.656,643.893 L1677.978,685.826 L1677.047,687.032 L1633.656,645.981 L1590.268,687.032 L1589.336,685.826 ZM1729.884,667.478 L1729.908,667.453 L1810.832,744.015 L1808.624,744.015 L1729.894,669.528 L1651.161,744.015 L1648.956,744.015 L1729.870,667.463 L1729.884,667.478 ZM1729.884,701.121 L1729.910,701.097 L1775.272,744.015 L1773.067,744.015 L1729.894,703.169 L1686.721,744.015 L1684.514,744.015 L1729.870,701.105 L1729.884,701.121 ZM1729.884,734.760 L1729.908,734.737 L1739.715,744.015 L1737.509,744.015 L1729.894,736.811 L1722.279,744.015 L1720.071,744.015 L1729.870,734.746 L1729.884,734.760 ZM1826.130,679.622 L1797.765,706.460 L1796.833,705.253 L1826.130,677.534 L1855.427,705.253 L1854.498,706.458 L1826.130,679.622 ZM1826.130,645.981 L1782.739,687.032 L1781.807,685.826 L1826.130,643.893 L1870.452,685.826 L1869.521,687.032 L1826.130,645.981 ZM1826.130,612.339 L1765.705,669.507 L1766.459,670.481 L1729.894,635.886 L1693.324,670.485 L1695.912,667.142 L1699.415,662.611 L1729.870,633.821 L1729.884,633.836 L1729.908,633.811 L1760.516,662.768 L1764.773,668.302 L1826.130,610.251 L1885.475,666.399 L1884.543,667.604 L1826.130,612.339 ZM1826.130,578.698 L1752.693,648.177 L1751.762,646.971 L1826.130,576.609 L1900.500,646.971 L1899.569,648.177 L1826.130,578.698 ZM1915.523,627.543 L1914.592,628.749 L1826.130,545.056 L1737.668,628.749 L1736.736,627.543 L1826.130,542.967 L1915.523,627.543 ZM1729.894,487.891 L1669.480,545.046 L1670.229,546.013 L1633.656,511.413 L1597.091,546.008 L1597.834,545.046 L1596.173,543.475 L1597.974,544.862 L1603.166,538.150 L1633.656,509.325 L1664.291,538.307 L1668.548,543.841 L1729.870,485.826 L1729.884,485.841 L1729.908,485.817 L1789.226,541.938 L1788.294,543.144 L1729.894,487.891 ZM1729.894,454.249 L1656.466,523.716 L1655.534,522.511 L1729.870,452.184 L1729.884,452.200 L1729.910,452.176 L1804.251,522.511 L1803.320,523.716 L1729.894,454.249 ZM1729.894,420.607 L1641.443,504.290 L1640.512,503.084 L1729.870,418.543 L1729.884,418.559 L1729.910,418.535 L1819.274,503.084 L1818.345,504.288 L1729.894,420.607 ZM1826.130,464.344 L1812.787,476.968 L1811.856,475.762 L1826.130,462.255 L1840.404,475.762 L1839.472,476.968 L1826.130,464.344 ZM1826.130,430.702 L1797.765,457.540 L1796.833,456.333 L1826.130,428.614 L1855.427,456.333 L1854.498,457.538 L1826.130,430.702 ZM1826.130,397.060 L1782.739,438.112 L1781.807,436.905 L1826.130,394.973 L1870.452,436.905 L1869.521,438.112 L1826.130,397.060 ZM1826.130,363.419 L1765.705,420.587 L1766.456,421.557 L1729.894,386.966 L1693.340,421.549 L1699.415,413.690 L1729.870,384.901 L1729.884,384.916 L1729.908,384.891 L1760.516,413.848 L1764.773,419.382 L1826.130,361.331 L1885.475,417.479 L1884.543,418.684 L1826.130,363.419 ZM1826.130,329.778 L1752.693,399.257 L1751.762,398.051 L1826.130,327.689 L1900.500,398.051 L1899.569,399.257 L1826.130,329.778 ZM1915.523,378.623 L1914.592,379.829 L1826.130,296.136 L1737.668,379.829 L1736.736,378.623 L1826.130,294.047 L1915.523,378.623 ZM1729.894,238.971 L1669.480,296.126 L1670.229,297.093 L1633.656,262.494 L1597.089,297.089 L1597.834,296.126 L1596.170,294.553 L1597.974,295.942 L1603.166,289.230 L1633.656,260.405 L1664.291,289.387 L1668.548,294.922 L1729.870,236.906 L1729.884,236.921 L1729.908,236.897 L1789.226,293.020 L1788.294,294.224 L1729.894,238.971 ZM1729.894,205.329 L1656.466,274.796 L1655.534,273.591 L1729.870,203.264 L1729.884,203.280 L1729.910,203.256 L1804.251,273.591 L1803.320,274.796 L1729.894,205.329 ZM1677.978,187.985 L1677.047,189.191 L1633.656,148.140 L1590.268,189.191 L1589.336,187.985 L1633.656,146.052 L1677.978,187.985 ZM1605.291,208.619 L1604.359,207.413 L1633.656,179.694 L1662.956,207.413 L1662.024,208.619 L1633.656,181.782 L1605.291,208.619 ZM1633.656,215.424 L1620.314,228.047 L1619.382,226.842 L1633.656,213.335 L1647.930,226.842 L1646.998,228.047 L1633.656,215.424 ZM1537.410,169.637 L1537.434,169.613 L1626.803,254.164 L1625.871,255.369 L1537.420,171.687 L1448.969,255.369 L1448.038,254.164 L1537.396,169.622 L1537.410,169.637 ZM1485.504,187.985 L1484.573,189.191 L1441.182,148.140 L1397.794,189.191 L1396.862,187.985 L1441.182,146.052 L1485.504,187.985 ZM1344.936,169.637 L1344.960,169.613 L1434.329,254.164 L1433.397,255.369 L1344.946,171.687 L1256.495,255.369 L1255.564,254.164 L1344.922,169.622 L1344.936,169.637 ZM1293.031,187.985 L1292.099,189.191 L1248.711,148.140 L1205.320,189.191 L1204.389,187.985 L1248.711,146.052 L1293.031,187.985 ZM1241.855,254.164 L1240.924,255.369 L1152.472,171.687 L1064.024,255.369 L1063.090,254.162 L1152.472,169.598 L1241.855,254.164 ZM1100.559,187.986 L1099.628,189.191 L1056.237,148.140 L1012.846,189.191 L1011.915,187.985 L1056.237,146.052 L1100.559,187.986 ZM1049.381,254.164 L1048.450,255.369 L959.999,171.687 L871.551,255.369 L870.619,254.164 L959.999,169.598 L1049.381,254.164 ZM908.086,187.985 L907.154,189.191 L863.763,148.140 L820.372,189.191 L819.441,187.985 L863.763,146.052 L908.086,187.985 ZM856.907,254.164 L855.976,255.369 L767.528,171.687 L679.077,255.369 L678.145,254.164 L767.525,169.598 L856.907,254.164 ZM715.612,187.985 L714.680,189.191 L671.289,148.140 L627.899,189.191 L626.967,187.985 L671.289,146.052 L715.612,187.985 ZM664.434,254.164 L663.502,255.369 L575.054,171.687 L486.603,255.369 L485.671,254.164 L575.054,169.598 L664.434,254.164 ZM523.138,187.985 L522.206,189.191 L478.815,148.140 L435.425,189.191 L434.493,187.985 L478.815,146.052 L523.138,187.985 ZM471.960,254.164 L471.031,255.368 L382.580,171.687 L294.129,255.369 L293.197,254.164 L382.579,169.598 L471.960,254.164 ZM330.665,187.985 L329.732,189.191 L286.343,148.140 L242.952,189.191 L242.020,187.985 L286.343,146.052 L330.665,187.985 ZM279.487,254.164 L278.555,255.369 L190.106,171.687 L101.656,255.369 L100.723,254.164 L190.106,169.598 L279.487,254.164 ZM49.548,187.985 L93.869,146.052 L138.191,187.985 L137.260,189.191 L93.869,148.140 L50.480,189.191 L49.548,187.985 ZM64.571,207.413 L93.869,179.694 L123.167,207.413 L122.236,208.619 L93.869,181.782 L65.502,208.619 L64.571,207.413 ZM79.595,226.842 L93.869,213.335 L108.143,226.842 L107.212,228.046 L93.869,215.424 L80.526,228.047 L79.595,226.842 ZM116.679,274.796 L115.747,273.591 L190.106,203.240 L264.463,273.591 L263.531,274.796 L190.106,205.329 L116.679,274.796 ZM257.976,208.619 L257.044,207.413 L286.343,179.694 L315.641,207.413 L314.709,208.618 L286.343,181.782 L257.976,208.619 ZM286.343,215.424 L273.000,228.047 L272.069,226.842 L286.343,213.335 L300.616,226.842 L299.684,228.047 L286.343,215.424 ZM58.189,295.942 L63.379,289.230 L93.869,260.405 L124.500,289.387 L128.760,294.922 L190.106,236.882 L251.450,294.922 L255.853,289.230 L286.343,260.405 L316.974,289.387 L321.234,294.922 L382.580,236.882 L441.911,293.020 L440.980,294.224 L382.580,238.971 L322.166,296.126 L322.910,297.089 L286.343,262.494 L249.769,297.096 L250.519,296.126 L190.106,238.971 L129.692,296.126 L130.436,297.089 L93.869,262.494 L57.298,297.093 L58.046,296.126 L56.377,294.546 L58.189,295.942 ZM4.476,378.623 L93.869,294.047 L183.262,378.623 L182.329,379.829 L93.869,296.136 L5.407,379.829 L4.476,378.623 ZM20.431,399.257 L19.500,398.051 L93.869,327.689 L168.238,398.051 L167.307,399.257 L93.869,329.778 L20.431,399.257 ZM190.106,384.877 L220.728,413.848 L222.222,415.808 L224.986,419.381 L286.343,361.331 L345.688,417.479 L344.756,418.684 L286.343,363.419 L225.917,420.587 L226.665,421.554 L190.106,386.966 L153.552,421.549 L159.628,413.690 L190.106,384.877 ZM279.487,503.084 L278.555,504.290 L190.106,420.607 L101.656,504.290 L100.722,503.084 L190.106,418.518 L279.487,503.084 ZM49.548,436.905 L93.869,394.973 L138.191,436.905 L137.260,438.112 L93.869,397.060 L50.480,438.112 L49.548,436.905 ZM64.571,456.333 L93.869,428.614 L123.167,456.333 L122.236,457.540 L93.869,430.702 L65.502,457.540 L64.571,456.333 ZM79.595,475.762 L93.869,462.255 L108.143,475.762 L107.212,476.967 L93.869,464.344 L80.526,476.968 L79.595,475.762 ZM58.189,544.862 L63.379,538.150 L93.869,509.325 L124.500,538.307 L128.760,543.841 L190.106,485.802 L249.439,541.938 L248.507,543.144 L190.106,487.891 L129.692,545.046 L130.436,546.008 L93.869,511.413 L57.299,546.012 L58.046,545.046 L56.379,543.469 L58.189,544.862 ZM176.776,601.427 L175.844,600.223 L190.106,586.727 L204.368,600.221 L203.436,601.427 L190.106,588.816 L176.776,601.427 ZM190.121,553.099 L219.392,580.794 L218.459,582.000 L190.106,555.174 L161.752,582.000 L160.820,580.794 L190.023,553.165 L190.037,553.181 L190.121,553.099 ZM145.796,561.366 L190.021,519.524 L190.037,519.542 L190.122,519.459 L234.415,561.366 L233.483,562.572 L190.106,521.533 L146.727,562.572 L145.796,561.366 ZM369.248,601.427 L368.318,600.223 L382.580,586.727 L396.842,600.221 L395.910,601.427 L382.580,588.816 L369.248,601.427 ZM561.722,601.427 L560.790,600.223 L575.054,586.727 L589.315,600.221 L588.383,601.427 L575.054,588.816 L561.722,601.427 ZM754.196,601.427 L753.264,600.223 L767.528,586.727 L781.788,600.221 L780.857,601.427 L767.528,588.816 L754.196,601.427 ZM946.670,601.427 L945.738,600.223 L960.001,586.727 L974.262,600.221 L973.330,601.427 L959.999,588.816 L946.670,601.427 ZM1139.144,601.427 L1138.212,600.223 L1152.475,586.727 L1166.736,600.221 L1165.804,601.427 L1152.472,588.816 L1139.144,601.427 ZM1331.617,601.427 L1330.686,600.223 L1344.920,586.753 L1344.936,586.768 L1344.960,586.742 L1359.210,600.221 L1358.278,601.427 L1344.946,588.816 L1331.617,601.427 ZM1524.089,601.426 L1523.160,600.223 L1537.396,586.751 L1537.410,586.766 L1537.434,586.742 L1551.684,600.221 L1550.752,601.427 L1537.420,588.816 L1524.089,601.426 ZM1537.493,553.155 L1566.707,580.794 L1565.775,582.000 L1537.420,555.174 L1509.066,582.000 L1508.134,580.794 L1537.337,553.165 L1537.410,553.247 L1537.493,553.155 ZM1493.111,561.366 L1537.337,519.524 L1537.410,519.608 L1537.493,519.513 L1581.729,561.366 L1580.798,562.572 L1537.420,521.533 L1494.043,562.572 L1493.111,561.366 ZM1345.019,553.155 L1374.233,580.794 L1373.301,582.000 L1344.946,555.174 L1316.592,582.000 L1315.660,580.794 L1344.863,553.165 L1344.936,553.247 L1345.019,553.155 ZM1300.638,561.366 L1344.863,519.524 L1344.936,519.608 L1345.019,519.513 L1389.255,561.366 L1388.324,562.572 L1344.946,521.533 L1301.569,562.572 L1300.638,561.366 ZM1181.759,580.794 L1180.827,582.000 L1152.472,555.174 L1124.118,582.000 L1123.186,580.794 L1152.472,553.086 L1181.759,580.794 ZM1108.164,561.366 L1152.472,519.444 L1196.782,561.366 L1195.850,562.572 L1152.472,521.533 L1109.095,562.572 L1108.164,561.366 ZM1537.420,487.891 L1477.006,545.046 L1477.755,546.013 L1441.182,511.413 L1404.618,546.008 L1405.361,545.046 L1344.946,487.891 L1284.532,545.046 L1285.273,546.004 L1248.711,511.413 L1212.135,546.017 L1212.887,545.046 L1152.472,487.891 L1092.061,545.046 L1092.810,546.013 L1056.237,511.413 L1019.662,546.017 L1020.413,545.046 L1018.738,543.464 L1020.555,544.861 L1025.745,538.149 L1056.237,509.325 L1086.869,538.307 L1091.127,543.841 L1152.472,485.802 L1213.819,543.841 L1218.218,538.150 L1248.711,509.325 L1279.343,538.307 L1283.601,543.841 L1344.922,485.826 L1344.936,485.841 L1344.960,485.817 L1406.292,543.841 L1410.692,538.150 L1441.182,509.325 L1471.817,538.307 L1476.074,543.841 L1537.396,485.826 L1537.410,485.841 L1537.434,485.817 L1596.752,541.938 L1595.823,543.143 L1537.420,487.891 ZM1537.420,454.249 L1463.992,523.715 L1463.063,522.511 L1537.396,452.184 L1537.410,452.199 L1537.434,452.175 L1611.778,522.511 L1610.846,523.716 L1537.420,454.249 ZM1537.420,420.607 L1448.969,504.290 L1448.038,503.084 L1537.396,418.543 L1537.410,418.557 L1537.434,418.533 L1626.803,503.084 L1625.871,504.290 L1537.420,420.607 ZM1633.656,464.344 L1620.314,476.968 L1619.382,475.762 L1633.656,462.255 L1647.930,475.762 L1646.998,476.968 L1633.656,464.344 ZM1633.656,430.702 L1605.291,457.540 L1604.359,456.333 L1633.656,428.614 L1662.956,456.333 L1662.024,457.540 L1633.656,430.702 ZM1633.656,397.060 L1590.268,438.112 L1589.336,436.905 L1633.656,394.973 L1677.978,436.905 L1677.047,438.112 L1633.656,397.060 ZM1633.656,363.419 L1573.231,420.587 L1573.977,421.550 L1537.420,386.966 L1500.866,421.549 L1506.941,413.690 L1537.396,384.901 L1537.410,384.916 L1537.434,384.891 L1568.042,413.848 L1572.299,419.382 L1633.656,361.331 L1693.001,417.479 L1692.072,418.685 L1633.656,363.419 ZM1633.656,329.778 L1560.220,399.257 L1559.288,398.051 L1633.656,327.689 L1708.026,398.051 L1707.095,399.257 L1633.656,329.778 ZM1034.356,273.591 L1033.424,274.796 L959.999,205.329 L886.573,274.796 L885.642,273.591 L959.999,203.240 L1034.356,273.591 ZM841.882,273.591 L840.953,274.795 L767.528,205.329 L694.099,274.796 L693.168,273.591 L767.525,203.240 L841.882,273.591 ZM649.411,273.591 L648.479,274.796 L575.054,205.329 L501.626,274.796 L500.694,273.591 L575.051,203.240 L649.411,273.591 ZM568.209,378.623 L567.277,379.829 L478.815,296.136 L390.355,379.829 L389.422,378.623 L478.815,294.047 L568.209,378.623 ZM426.889,312.446 L425.957,313.652 L382.580,272.612 L339.201,313.651 L338.269,312.446 L382.580,270.524 L426.889,312.446 ZM212.905,399.257 L211.974,398.051 L286.343,327.689 L360.712,398.051 L359.779,399.257 L286.343,329.778 L212.905,399.257 ZM354.225,333.079 L353.294,331.874 L382.580,304.165 L411.866,331.874 L410.933,333.080 L382.580,306.254 L354.225,333.079 ZM382.580,339.896 L369.248,352.507 L368.316,351.301 L382.580,337.807 L396.842,351.301 L395.910,352.507 L382.580,339.896 ZM382.579,384.877 L413.200,413.848 L417.459,419.382 L478.815,361.331 L538.160,417.479 L537.229,418.684 L478.815,363.419 L418.391,420.587 L419.142,421.557 L382.580,386.966 L346.021,421.554 L352.101,413.690 L382.579,384.877 ZM471.960,503.084 L471.031,504.288 L382.580,420.607 L294.129,504.290 L293.196,503.084 L382.579,418.518 L471.960,503.084 ZM242.020,436.905 L286.343,394.973 L330.665,436.905 L329.732,438.112 L286.343,397.060 L242.952,438.112 L242.020,436.905 ZM257.044,456.333 L286.343,428.614 L315.641,456.333 L314.709,457.538 L286.343,430.702 L257.976,457.540 L257.044,456.333 ZM272.069,475.762 L286.343,462.255 L300.616,475.762 L299.684,476.968 L286.343,464.344 L273.000,476.968 L272.069,475.762 ZM309.153,523.716 L308.221,522.511 L382.579,452.160 L456.937,522.511 L456.005,523.716 L382.580,454.249 L309.153,523.716 ZM959.999,454.249 L886.573,523.716 L885.642,522.511 L959.999,452.160 L1034.356,522.511 L1033.424,523.716 L959.999,454.249 ZM959.999,420.607 L871.551,504.290 L870.619,503.084 L959.999,418.518 L1049.381,503.084 L1048.450,504.290 L959.999,420.607 ZM1042.894,476.968 L1041.963,475.762 L1056.237,462.255 L1070.511,475.762 L1069.579,476.968 L1056.237,464.344 L1042.894,476.968 ZM1235.368,476.968 L1234.437,475.762 L1248.711,462.255 L1262.982,475.762 L1262.053,476.967 L1248.711,464.344 L1235.368,476.968 ZM1441.182,464.344 L1427.839,476.967 L1426.910,475.762 L1441.182,462.255 L1455.456,475.762 L1454.525,476.968 L1441.182,464.344 ZM1441.182,430.702 L1412.817,457.540 L1411.885,456.333 L1441.182,428.614 L1470.482,456.333 L1469.550,457.540 L1441.182,430.702 ZM1441.182,397.060 L1397.794,438.112 L1396.862,436.905 L1441.182,394.973 L1485.504,436.905 L1484.573,438.112 L1441.182,397.060 ZM1441.182,363.419 L1380.757,420.589 L1381.503,421.550 L1344.946,386.966 L1308.393,421.549 L1314.467,413.690 L1344.922,384.901 L1344.936,384.916 L1344.960,384.891 L1375.568,413.848 L1379.825,419.382 L1441.182,361.331 L1500.530,417.480 L1499.598,418.685 L1441.182,363.419 ZM1441.182,329.778 L1367.746,399.257 L1366.814,398.051 L1441.182,327.689 L1515.553,398.051 L1514.621,399.257 L1441.182,329.778 ZM1344.936,270.563 L1344.960,270.539 L1389.255,312.446 L1388.324,313.652 L1344.946,272.612 L1301.569,313.651 L1300.638,312.446 L1344.922,270.548 L1344.936,270.563 ZM1316.592,333.079 L1315.660,331.874 L1344.922,304.189 L1344.936,304.202 L1344.960,304.179 L1374.233,331.874 L1373.301,333.079 L1344.946,306.254 L1316.592,333.079 ZM1344.946,339.896 L1331.617,352.507 L1330.686,351.301 L1344.920,337.833 L1344.936,337.848 L1344.960,337.822 L1359.210,351.301 L1358.278,352.507 L1344.946,339.896 ZM1338.104,378.621 L1337.170,379.829 L1248.711,296.136 L1160.249,379.829 L1159.318,378.623 L1248.711,294.047 L1338.104,378.621 ZM1196.782,312.446 L1195.850,313.652 L1152.472,272.612 L1109.095,313.651 L1108.164,312.446 L1152.472,270.524 L1196.782,312.446 ZM1145.630,378.623 L1144.699,379.829 L1056.237,296.136 L967.775,379.829 L966.843,378.623 L1056.237,294.047 L1145.630,378.623 ZM1004.308,312.446 L1003.378,313.651 L959.999,272.612 L916.622,313.651 L915.690,312.446 L959.999,270.524 L1004.308,312.446 ZM953.157,378.623 L952.225,379.829 L863.763,296.136 L775.301,379.829 L774.370,378.623 L863.763,294.047 L953.157,378.623 ZM811.836,312.446 L810.905,313.652 L767.528,272.612 L724.148,313.651 L723.216,312.446 L767.525,270.524 L811.836,312.446 ZM760.683,378.623 L759.751,379.829 L671.289,296.136 L582.828,379.829 L581.896,378.623 L671.289,294.047 L760.683,378.623 ZM530.742,312.446 L575.054,270.524 L619.362,312.446 L618.431,313.652 L575.054,272.612 L531.674,313.651 L530.742,312.446 ZM545.767,331.874 L575.054,304.165 L604.340,331.873 L603.405,333.080 L575.054,306.254 L546.699,333.079 L545.767,331.874 ZM560.790,351.301 L575.054,337.807 L589.315,351.301 L588.383,352.507 L575.054,339.896 L561.722,352.507 L560.790,351.301 ZM657.947,476.968 L657.015,475.762 L671.289,462.255 L685.563,475.762 L684.632,476.968 L671.289,464.344 L657.947,476.968 ZM700.586,456.333 L699.655,457.540 L671.289,430.702 L642.924,457.540 L641.992,456.333 L671.289,428.614 L700.586,456.333 ZM626.967,436.905 L671.289,394.973 L715.612,436.905 L714.680,438.112 L671.289,397.060 L627.899,438.112 L626.967,436.905 ZM863.763,464.344 L850.421,476.968 L849.489,475.762 L863.763,462.255 L878.037,475.762 L877.106,476.968 L863.763,464.344 ZM863.763,430.702 L835.398,457.540 L834.466,456.333 L863.763,428.614 L893.060,456.333 L892.128,457.540 L863.763,430.702 ZM863.763,397.060 L820.372,438.112 L819.441,436.905 L863.763,394.973 L908.086,436.905 L907.154,438.112 L863.763,397.060 ZM597.853,399.257 L596.921,398.051 L671.289,327.689 L745.660,398.050 L744.726,399.257 L671.289,329.778 L597.853,399.257 ZM738.241,331.874 L767.528,304.165 L796.811,331.874 L795.879,333.079 L767.528,306.254 L739.173,333.079 L738.241,331.874 ZM767.528,339.896 L754.196,352.507 L753.264,351.301 L767.525,337.807 L781.788,351.301 L780.857,352.507 L767.528,339.896 ZM863.763,363.419 L803.338,420.587 L804.090,421.557 L767.528,386.966 L730.963,421.558 L736.981,413.775 L767.525,384.877 L798.149,413.848 L799.644,415.808 L802.407,419.381 L863.763,361.331 L923.108,417.479 L922.176,418.684 L863.763,363.419 ZM790.324,399.257 L789.393,398.051 L863.763,327.689 L938.134,398.050 L937.199,399.257 L863.763,329.778 L790.324,399.257 ZM931.644,333.077 L930.715,331.874 L960.001,304.165 L989.285,331.874 L988.353,333.079 L959.999,306.254 L931.644,333.077 ZM959.999,339.896 L946.670,352.507 L945.738,351.301 L960.001,337.807 L974.262,351.301 L973.330,352.507 L959.999,339.896 ZM982.798,399.257 L981.866,398.051 L1056.237,327.689 L1130.605,398.051 L1129.673,399.257 L1056.237,329.778 L982.798,399.257 ZM1124.118,333.079 L1123.186,331.874 L1152.472,304.165 L1181.759,331.874 L1180.827,333.079 L1152.472,306.254 L1124.118,333.079 ZM1152.472,339.896 L1139.144,352.507 L1138.212,351.301 L1152.472,337.807 L1166.736,351.301 L1165.804,352.507 L1152.472,339.896 ZM1175.272,399.257 L1174.340,398.051 L1248.711,327.689 L1323.079,398.051 L1322.147,399.257 L1248.711,329.778 L1175.272,399.257 ZM1278.008,456.333 L1277.076,457.540 L1248.711,430.702 L1220.343,457.540 L1219.411,456.333 L1248.711,428.614 L1278.008,456.333 ZM1204.389,436.905 L1248.711,394.973 L1293.031,436.905 L1292.099,438.112 L1248.711,397.060 L1205.320,438.112 L1204.389,436.905 ZM1152.472,386.966 L1115.919,421.549 L1119.901,416.396 L1121.993,413.690 L1152.472,384.877 L1183.097,413.848 L1184.589,415.808 L1187.354,419.381 L1248.711,361.331 L1308.056,417.480 L1307.124,418.684 L1248.711,363.419 L1188.283,420.589 L1189.029,421.550 L1152.472,386.966 ZM1085.534,456.333 L1084.602,457.540 L1056.237,430.702 L1027.872,457.540 L1026.937,456.332 L1056.237,428.614 L1085.534,456.333 ZM1011.915,436.905 L1056.237,394.973 L1100.559,436.907 L1099.628,438.112 L1056.237,397.060 L1012.846,438.112 L1011.915,436.905 ZM959.999,386.966 L923.439,421.555 L927.427,416.396 L929.520,413.690 L959.999,384.877 L990.623,413.848 L992.118,415.808 L994.880,419.381 L1056.237,361.331 L1115.582,417.479 L1114.650,418.684 L1056.237,363.419 L995.812,420.587 L996.563,421.559 L959.999,386.966 ZM840.953,523.715 L767.528,454.249 L694.099,523.716 L693.168,522.511 L767.525,452.160 L841.882,522.511 L840.953,523.715 ZM678.145,503.084 L767.525,418.518 L856.907,503.084 L855.976,504.290 L767.528,420.607 L679.077,504.290 L678.145,503.084 ZM648.479,523.716 L575.054,454.249 L501.626,523.716 L500.694,522.511 L575.051,452.160 L649.411,522.511 L648.479,523.716 ZM664.434,503.084 L663.502,504.290 L575.054,420.607 L486.603,504.290 L485.671,503.084 L575.054,418.518 L664.434,503.084 ZM434.493,436.905 L478.815,394.973 L523.138,436.905 L522.206,438.112 L478.815,397.060 L435.425,438.112 L434.493,436.905 ZM493.090,475.762 L492.158,476.968 L478.815,464.344 L465.473,476.968 L464.541,475.762 L478.815,462.255 L493.090,475.762 ZM449.518,456.333 L478.815,428.614 L508.112,456.333 L507.183,457.538 L478.815,430.702 L450.450,457.540 L449.518,456.333 ZM405.378,399.257 L404.446,398.051 L478.815,327.689 L553.186,398.050 L552.251,399.257 L478.815,329.778 L405.378,399.257 ZM605.675,413.848 L607.167,415.808 L609.933,419.381 L671.289,361.331 L730.634,417.479 L729.703,418.684 L671.289,363.419 L610.864,420.587 L611.615,421.557 L575.054,386.966 L538.489,421.557 L544.575,413.691 L575.051,384.877 L605.675,413.848 ZM1441.182,296.136 L1352.723,379.829 L1351.789,378.621 L1441.182,294.047 L1530.578,378.621 L1529.644,379.829 L1441.182,296.136 ZM1537.420,339.896 L1524.089,352.506 L1523.160,351.301 L1537.396,337.831 L1537.410,337.846 L1537.434,337.822 L1551.684,351.301 L1550.752,352.507 L1537.420,339.896 ZM1494.043,313.651 L1493.111,312.446 L1537.396,270.548 L1537.410,270.563 L1537.434,270.539 L1581.729,312.446 L1580.798,313.652 L1537.420,272.612 L1494.043,313.651 ZM1537.420,306.254 L1509.066,333.079 L1508.134,331.874 L1537.396,304.189 L1537.410,304.202 L1537.434,304.179 L1566.707,331.874 L1565.775,333.079 L1537.420,306.254 ZM1344.960,452.175 L1419.303,522.511 L1418.372,523.716 L1344.946,454.249 L1271.521,523.716 L1270.589,522.511 L1344.922,452.184 L1344.936,452.199 L1344.960,452.175 ZM1255.564,503.084 L1344.922,418.543 L1344.936,418.557 L1344.960,418.533 L1434.329,503.084 L1433.397,504.290 L1344.946,420.607 L1256.495,504.290 L1255.564,503.084 ZM1226.830,522.511 L1225.898,523.716 L1152.472,454.249 L1079.047,523.716 L1078.115,522.511 L1152.472,452.160 L1226.830,522.511 ZM1063.090,503.082 L1152.472,418.518 L1241.855,503.084 L1240.924,504.290 L1152.472,420.607 L1064.024,504.290 L1063.090,503.082 ZM989.285,580.794 L988.353,582.000 L959.999,555.174 L931.644,581.999 L930.715,580.794 L960.001,553.086 L989.285,580.794 ZM915.690,561.366 L959.999,519.444 L1004.308,561.366 L1003.378,562.571 L959.999,521.533 L916.622,562.572 L915.690,561.366 ZM828.082,544.861 L833.271,538.149 L863.763,509.325 L894.396,538.307 L898.656,543.841 L959.999,485.802 L1019.333,541.938 L1018.401,543.144 L960.001,487.891 L899.587,545.046 L900.336,546.013 L863.763,511.413 L827.188,546.016 L827.939,545.046 L826.267,543.464 L828.082,544.861 ZM796.811,580.794 L795.879,582.000 L767.528,555.174 L739.173,582.000 L738.241,580.794 L767.528,553.086 L796.811,580.794 ZM723.216,561.366 L767.525,519.444 L811.836,561.366 L810.905,562.572 L767.528,521.533 L724.148,562.572 L723.216,561.366 ZM635.608,544.861 L640.797,538.149 L671.289,509.325 L701.922,538.307 L706.182,543.841 L767.525,485.802 L826.859,541.938 L825.928,543.144 L767.528,487.891 L707.113,545.046 L707.862,546.013 L671.289,511.413 L634.714,546.016 L635.465,545.046 L633.793,543.464 L635.608,544.861 ZM604.340,580.793 L603.405,582.000 L575.054,555.174 L546.699,582.000 L545.767,580.794 L575.054,553.086 L604.340,580.793 ZM530.742,561.366 L575.054,519.444 L619.362,561.366 L618.431,562.572 L575.054,521.533 L531.674,562.572 L530.742,561.366 ZM443.134,544.862 L448.325,538.150 L478.815,509.325 L509.448,538.307 L513.708,543.841 L575.054,485.802 L634.385,541.938 L633.454,543.144 L575.054,487.891 L514.639,545.046 L515.388,546.012 L478.815,511.413 L442.240,546.017 L442.991,545.046 L441.319,543.464 L443.134,544.862 ZM382.651,553.154 L411.866,580.794 L410.933,582.000 L382.580,555.174 L354.225,582.000 L353.294,580.794 L382.554,553.110 L382.626,553.181 L382.651,553.154 ZM338.269,561.366 L382.553,519.469 L382.626,519.542 L382.652,519.513 L426.889,561.366 L425.957,562.572 L382.580,521.533 L339.201,562.572 L338.269,561.366 ZM116.679,523.716 L115.747,522.511 L190.106,452.160 L264.463,522.511 L263.531,523.716 L190.106,454.249 L116.679,523.716 ZM316.974,538.307 L321.234,543.841 L382.580,485.802 L441.911,541.938 L440.980,543.144 L382.580,487.891 L322.166,545.046 L322.909,546.007 L286.343,511.413 L249.770,546.015 L250.519,545.046 L248.849,543.467 L250.662,544.862 L255.853,538.150 L286.343,509.325 L316.974,538.307 ZM375.736,378.623 L374.803,379.829 L286.343,296.136 L197.881,379.829 L196.950,378.623 L286.343,294.047 L375.736,378.623 ZM145.796,312.446 L190.106,270.524 L234.415,312.446 L233.483,313.652 L190.106,272.612 L146.727,313.651 L145.796,312.446 ZM204.368,351.301 L203.436,352.507 L190.106,339.896 L176.776,352.507 L175.844,351.301 L190.106,337.807 L204.368,351.301 ZM160.820,331.874 L190.106,304.165 L219.392,331.873 L218.459,333.080 L190.106,306.254 L161.752,333.079 L160.820,331.874 ZM309.153,274.796 L308.221,273.591 L382.579,203.240 L456.937,273.591 L456.005,274.796 L382.580,205.329 L309.153,274.796 ZM513.708,294.922 L575.054,236.882 L634.385,293.020 L633.454,294.224 L575.054,238.971 L514.639,296.126 L515.388,297.093 L478.815,262.494 L442.240,297.097 L442.991,296.126 L441.316,294.543 L443.134,295.942 L448.325,289.230 L478.815,260.405 L509.448,289.387 L513.708,294.922 ZM450.450,208.619 L449.518,207.413 L478.815,179.694 L508.112,207.413 L507.183,208.618 L478.815,181.782 L450.450,208.619 ZM478.815,215.424 L465.473,228.047 L464.541,226.842 L478.815,213.335 L493.090,226.842 L492.158,228.047 L478.815,215.424 ZM706.182,294.922 L767.525,236.882 L826.859,293.020 L825.928,294.224 L767.528,238.971 L707.113,296.126 L707.862,297.093 L671.289,262.494 L634.714,297.097 L635.465,296.126 L633.790,294.541 L635.608,295.941 L640.797,289.229 L671.289,260.405 L701.922,289.387 L706.182,294.922 ZM642.924,208.619 L641.992,207.413 L671.289,179.694 L700.586,207.413 L699.655,208.619 L671.289,181.782 L642.924,208.619 ZM671.289,215.424 L657.947,228.047 L657.015,226.842 L671.289,213.335 L685.563,226.842 L684.632,228.047 L671.289,215.424 ZM898.656,294.922 L959.999,236.882 L1019.333,293.020 L1018.401,294.224 L960.001,238.971 L899.587,296.126 L900.336,297.093 L863.763,262.494 L827.188,297.097 L827.939,296.126 L826.264,294.541 L828.082,295.941 L833.271,289.229 L863.763,260.405 L894.396,289.387 L898.656,294.922 ZM835.398,208.619 L834.466,207.413 L863.763,179.694 L893.060,207.413 L892.128,208.619 L863.763,181.782 L835.398,208.619 ZM863.763,215.424 L850.421,228.047 L849.489,226.842 L863.763,213.335 L878.037,226.842 L877.106,228.047 L863.763,215.424 ZM1027.872,208.619 L1026.937,207.412 L1056.237,179.694 L1085.534,207.413 L1084.602,208.619 L1056.237,181.782 L1027.872,208.619 ZM1056.237,215.424 L1042.894,228.047 L1041.963,226.842 L1056.237,213.335 L1070.511,226.842 L1069.579,228.047 L1056.237,215.424 ZM1079.047,274.796 L1078.115,273.591 L1152.472,203.240 L1226.830,273.591 L1225.898,274.796 L1152.472,205.329 L1079.047,274.796 ZM1220.343,208.619 L1219.411,207.413 L1248.711,179.694 L1278.008,207.413 L1277.076,208.619 L1248.711,181.782 L1220.343,208.619 ZM1248.711,215.424 L1235.368,228.047 L1234.437,226.842 L1248.711,213.335 L1262.982,226.842 L1262.053,228.046 L1248.711,215.424 ZM1271.521,274.796 L1270.589,273.591 L1344.922,203.264 L1344.936,203.279 L1344.960,203.255 L1419.303,273.591 L1418.372,274.796 L1344.946,205.329 L1271.521,274.796 ZM1412.817,208.619 L1411.885,207.413 L1441.182,179.694 L1470.482,207.413 L1469.550,208.619 L1441.182,181.782 L1412.817,208.619 ZM1441.182,215.424 L1427.839,228.046 L1426.910,226.842 L1441.182,213.335 L1455.456,226.842 L1454.525,228.047 L1441.182,215.424 ZM1463.992,274.795 L1463.063,273.591 L1537.396,203.264 L1537.410,203.279 L1537.434,203.255 L1611.778,273.591 L1610.846,274.796 L1537.420,205.329 L1463.992,274.795 ZM1537.420,238.971 L1477.006,296.126 L1477.755,297.093 L1441.182,262.494 L1404.615,297.089 L1405.361,296.126 L1344.946,238.971 L1284.532,296.126 L1285.273,297.084 L1248.711,262.494 L1212.135,297.099 L1212.887,296.126 L1152.472,238.971 L1092.061,296.126 L1092.810,297.093 L1056.237,262.494 L1019.662,297.099 L1020.413,296.126 L1018.735,294.540 L1020.555,295.941 L1025.745,289.229 L1056.237,260.405 L1086.869,289.387 L1091.127,294.922 L1152.472,236.882 L1213.819,294.922 L1218.218,289.229 L1248.711,260.405 L1279.343,289.387 L1283.601,294.922 L1344.922,236.906 L1344.936,236.921 L1344.960,236.897 L1406.292,294.922 L1410.692,289.229 L1441.182,260.405 L1471.817,289.387 L1476.074,294.922 L1537.396,236.906 L1537.410,236.921 L1537.434,236.897 L1596.752,293.020 L1595.823,294.223 L1537.420,238.971 ZM1633.656,296.136 L1545.194,379.829 L1544.263,378.623 L1633.656,294.047 L1723.049,378.623 L1722.118,379.829 L1633.656,296.136 ZM1729.894,339.896 L1716.563,352.507 L1715.631,351.301 L1729.870,337.831 L1729.884,337.846 L1729.908,337.822 L1744.155,351.301 L1743.223,352.507 L1729.894,339.896 ZM1686.517,313.651 L1685.583,312.445 L1729.870,270.548 L1729.884,270.564 L1729.910,270.540 L1774.203,312.446 L1773.271,313.652 L1729.894,272.612 L1686.517,313.651 ZM1729.894,306.254 L1701.540,333.079 L1700.608,331.874 L1729.870,304.189 L1729.884,304.202 L1729.908,304.179 L1759.180,331.873 L1758.246,333.079 L1729.894,306.254 ZM1729.894,588.816 L1716.563,601.427 L1715.631,600.223 L1729.870,586.751 L1729.884,586.766 L1729.908,586.742 L1744.155,600.221 L1743.223,601.427 L1729.894,588.816 ZM1686.517,562.572 L1685.583,561.365 L1729.811,519.524 L1729.884,519.609 L1729.970,519.515 L1774.203,561.366 L1773.271,562.572 L1729.894,521.533 L1686.517,562.572 ZM1729.894,555.174 L1701.540,582.000 L1700.608,580.794 L1729.811,553.165 L1729.884,553.247 L1729.967,553.155 L1759.180,580.793 L1758.249,581.999 L1729.894,555.174 ZM1708.026,646.971 L1707.095,648.177 L1633.656,578.698 L1560.220,648.177 L1559.288,646.971 L1633.656,576.609 L1708.026,646.971 ZM1544.263,627.543 L1633.656,542.967 L1723.049,627.543 L1722.118,628.749 L1633.656,545.056 L1545.194,628.749 L1544.263,627.543 ZM1515.553,646.971 L1514.621,648.177 L1441.182,578.698 L1367.746,648.177 L1366.814,646.971 L1441.182,576.609 L1515.553,646.971 ZM1351.789,627.542 L1441.182,542.967 L1530.578,627.542 L1529.644,628.749 L1441.182,545.056 L1352.723,628.749 L1351.789,627.542 ZM1323.079,646.971 L1322.147,648.177 L1248.711,578.698 L1175.272,648.177 L1174.340,646.971 L1248.711,576.609 L1323.079,646.971 ZM1159.318,627.543 L1248.711,542.967 L1338.104,627.542 L1337.170,628.749 L1248.711,545.056 L1160.249,628.749 L1159.318,627.543 ZM1130.605,646.971 L1129.673,648.177 L1056.237,578.698 L982.798,648.177 L981.866,646.971 L1056.237,576.609 L1130.605,646.971 ZM966.843,627.543 L1056.237,542.967 L1145.630,627.543 L1144.699,628.749 L1056.237,545.056 L967.775,628.749 L966.843,627.543 ZM938.134,646.970 L937.199,648.177 L863.763,578.698 L790.324,648.177 L789.393,646.971 L863.763,576.609 L938.134,646.970 ZM774.370,627.543 L863.763,542.967 L953.157,627.543 L952.225,628.749 L863.763,545.056 L775.301,628.749 L774.370,627.543 ZM745.660,646.970 L744.726,648.177 L671.289,578.698 L597.853,648.177 L596.921,646.971 L671.289,576.609 L745.660,646.970 ZM581.896,627.543 L671.289,542.967 L760.683,627.543 L759.751,628.749 L671.289,545.056 L582.828,628.749 L581.896,627.543 ZM553.186,646.970 L552.251,648.177 L478.815,578.698 L405.378,648.177 L404.446,646.971 L478.815,576.609 L553.186,646.970 ZM389.422,627.543 L478.815,542.967 L568.209,627.543 L567.277,628.749 L478.815,545.056 L390.355,628.749 L389.422,627.543 ZM360.712,646.971 L359.779,648.177 L286.343,578.698 L212.905,648.177 L211.974,646.971 L286.343,576.609 L360.712,646.971 ZM196.950,627.543 L286.343,542.967 L375.736,627.543 L374.803,628.749 L286.343,545.056 L197.881,628.749 L196.950,627.543 ZM168.238,646.971 L167.307,648.177 L93.869,578.698 L20.431,648.177 L19.500,646.971 L93.869,576.609 L168.238,646.971 ZM4.476,627.543 L93.869,542.967 L183.262,627.543 L182.329,628.749 L93.869,545.056 L5.407,628.749 L4.476,627.543 ZM1729.894,171.687 L1641.443,255.369 L1640.512,254.164 L1729.870,169.622 L1729.884,169.638 L1729.910,169.614 L1819.274,254.164 L1818.345,255.368 L1729.894,171.687 ZM1826.130,215.424 L1812.787,228.047 L1811.856,226.842 L1826.130,213.335 L1840.404,226.842 L1839.472,228.047 L1826.130,215.424 ZM1826.130,181.782 L1797.765,208.619 L1796.833,207.413 L1826.130,179.694 L1855.427,207.413 L1854.498,208.618 L1826.130,181.782 ZM1826.130,148.140 L1782.739,189.191 L1781.807,187.985 L1826.130,146.052 L1870.452,187.985 L1869.521,189.191 L1826.130,148.140 ZM1826.130,114.499 L1765.705,171.667 L1766.459,172.640 L1729.894,138.045 L1693.324,172.645 L1695.912,169.301 L1699.415,164.771 L1729.870,135.981 L1729.884,135.995 L1729.908,135.971 L1760.516,164.928 L1764.773,170.462 L1826.130,112.411 L1885.475,168.559 L1884.543,169.764 L1826.130,114.499 ZM1826.130,80.858 L1752.693,150.337 L1751.762,149.131 L1826.130,78.769 L1900.500,149.131 L1899.569,150.337 L1826.130,80.858 ZM1915.523,129.703 L1914.592,130.909 L1826.130,47.216 L1737.668,130.909 L1736.736,129.703 L1826.130,45.127 L1915.523,129.703 ZM1729.884,55.406 L1729.967,55.315 L1759.180,82.952 L1758.249,84.159 L1729.894,57.334 L1701.540,84.160 L1700.608,82.954 L1729.811,55.324 L1729.884,55.406 ZM1729.870,88.911 L1729.884,88.926 L1729.908,88.902 L1744.155,102.381 L1743.223,103.587 L1729.894,90.976 L1716.563,103.587 L1715.631,102.382 L1729.870,88.911 ZM1708.026,149.131 L1707.095,150.337 L1633.656,80.858 L1560.220,150.337 L1559.288,149.131 L1633.656,78.769 L1708.026,149.131 ZM1723.049,129.703 L1722.118,130.909 L1633.656,47.216 L1545.194,130.909 L1544.263,129.703 L1633.656,45.127 L1723.049,129.703 ZM1537.410,55.406 L1537.493,55.315 L1566.707,82.954 L1565.775,84.160 L1537.420,57.334 L1509.066,84.160 L1508.134,82.954 L1537.337,55.324 L1537.410,55.406 ZM1537.396,88.911 L1537.410,88.926 L1537.434,88.902 L1551.684,102.381 L1550.752,103.587 L1537.420,90.976 L1524.089,103.585 L1523.160,102.382 L1537.396,88.911 ZM1515.553,149.131 L1514.621,150.337 L1441.182,80.858 L1367.746,150.337 L1366.814,149.131 L1441.182,78.769 L1515.553,149.131 ZM1530.578,129.701 L1529.644,130.909 L1441.182,47.216 L1352.723,130.909 L1351.789,129.701 L1441.182,45.127 L1530.578,129.701 ZM1344.936,55.406 L1345.019,55.315 L1374.233,82.954 L1373.301,84.160 L1344.946,57.334 L1316.592,84.160 L1315.660,82.954 L1344.863,55.324 L1344.936,55.406 ZM1344.920,88.913 L1344.936,88.927 L1344.960,88.902 L1359.210,102.381 L1358.278,103.587 L1344.946,90.976 L1331.617,103.587 L1330.686,102.382 L1344.920,88.913 ZM1323.079,149.131 L1322.147,150.337 L1248.711,80.858 L1175.272,150.337 L1174.340,149.131 L1248.711,78.769 L1323.079,149.131 ZM1338.104,129.701 L1337.170,130.909 L1248.711,47.216 L1160.249,130.909 L1159.318,129.703 L1248.711,45.127 L1338.104,129.701 ZM1181.759,82.954 L1180.827,84.160 L1152.472,57.334 L1124.118,84.160 L1123.186,82.954 L1152.472,55.245 L1181.759,82.954 ZM1152.475,88.887 L1166.736,102.381 L1165.804,103.587 L1152.472,90.976 L1139.144,103.587 L1138.212,102.382 L1152.475,88.887 ZM1130.605,149.131 L1129.673,150.337 L1056.237,80.858 L982.798,150.337 L981.866,149.131 L1056.237,78.769 L1130.605,149.131 ZM1145.630,129.703 L1144.699,130.909 L1056.237,47.216 L967.775,130.909 L966.843,129.703 L1056.237,45.127 L1145.630,129.703 ZM989.285,82.954 L988.353,84.160 L959.999,57.334 L931.644,84.159 L930.715,82.954 L960.001,55.245 L989.285,82.954 ZM960.001,88.887 L974.262,102.381 L973.330,103.587 L959.999,90.976 L946.670,103.587 L945.738,102.382 L960.001,88.887 ZM938.134,149.129 L937.199,150.337 L863.763,80.858 L790.324,150.337 L789.393,149.131 L863.763,78.769 L938.134,149.129 ZM953.157,129.703 L952.225,130.909 L863.763,47.216 L775.301,130.909 L774.370,129.703 L863.763,45.127 L953.157,129.703 ZM796.811,82.954 L795.879,84.160 L767.528,57.334 L739.173,84.160 L738.241,82.954 L767.528,55.245 L796.811,82.954 ZM767.528,88.887 L781.788,102.381 L780.857,103.587 L767.528,90.976 L754.196,103.587 L753.264,102.382 L767.528,88.887 ZM745.660,149.129 L744.726,150.337 L671.289,80.858 L597.853,150.337 L596.921,149.131 L671.289,78.769 L745.660,149.129 ZM760.683,129.703 L759.751,130.909 L671.289,47.216 L582.828,130.909 L581.896,129.703 L671.289,45.127 L760.683,129.703 ZM604.340,82.952 L603.405,84.160 L575.054,57.334 L546.699,84.160 L545.767,82.954 L575.054,55.245 L604.340,82.952 ZM575.054,88.887 L589.315,102.381 L588.383,103.587 L575.054,90.976 L561.722,103.587 L560.790,102.382 L575.054,88.887 ZM553.186,149.129 L552.251,150.337 L478.815,80.858 L405.378,150.337 L404.446,149.131 L478.815,78.769 L553.186,149.129 ZM568.209,129.703 L567.277,130.909 L478.815,47.216 L390.355,130.909 L389.422,129.703 L478.815,45.127 L568.209,129.703 ZM382.626,55.340 L382.651,55.313 L411.866,82.954 L410.933,84.160 L382.580,57.334 L354.225,84.160 L353.294,82.954 L382.554,55.269 L382.626,55.340 ZM382.580,88.887 L396.842,102.381 L395.910,103.587 L382.580,90.976 L369.248,103.587 L368.318,102.382 L382.580,88.887 ZM360.712,149.131 L359.779,150.337 L286.343,80.858 L212.905,150.337 L211.974,149.131 L286.343,78.769 L360.712,149.131 ZM375.736,129.703 L374.803,130.909 L286.343,47.216 L197.881,130.909 L196.950,129.703 L286.343,45.127 L375.736,129.703 ZM190.037,55.340 L190.121,55.259 L219.392,82.954 L218.459,84.160 L190.106,57.334 L161.752,84.160 L160.820,82.954 L190.023,55.324 L190.037,55.340 ZM190.106,88.887 L204.368,102.381 L203.436,103.587 L190.106,90.976 L176.776,103.587 L175.844,102.382 L190.106,88.887 ZM168.238,149.131 L167.307,150.337 L93.869,80.858 L20.431,150.337 L19.500,149.131 L93.869,78.769 L168.238,149.131 ZM4.476,129.703 L93.869,45.127 L183.262,129.703 L182.329,130.909 L93.869,47.216 L5.407,130.909 L4.476,129.703 ZM1840.404,724.682 L1839.472,725.888 L1826.130,713.264 L1812.787,725.888 L1811.856,724.682 L1826.130,711.176 L1840.404,724.682 Z" class="cls-1"/>
</svg>
